<svg width="15" height="14" viewBox="0 0 15 14" fill="none" xmlns="http://www.w3.org/2000/svg">
<path d="M6.30208 13.6477L0.252083 7.59773C0.160417 7.50606 0.0953331 7.40675 0.0568331 7.29981C0.0189443 7.19287 0 7.07828 0 6.95606C0 6.83384 0.0189443 6.71925 0.0568331 6.61231C0.0953331 6.50537 0.160417 6.40606 0.252083 6.31439L6.30208 0.264392C6.47014 0.0963367 6.68006 0.00833701 6.93183 0.000392561C7.18422 -0.00694077 7.40208 0.0810589 7.58542 0.264392C7.76875 0.432448 7.86439 0.642365 7.87233 0.894143C7.87967 1.14653 7.79167 1.36439 7.60833 1.54773L3.11667 6.03939H13.3604C13.6201 6.03939 13.838 6.12709 14.014 6.30248C14.1894 6.47848 14.2771 6.69634 14.2771 6.95606C14.2771 7.21578 14.1894 7.43334 14.014 7.60873C13.838 7.78473 13.6201 7.87273 13.3604 7.87273H3.11667L7.60833 12.3644C7.77639 12.5324 7.86439 12.7463 7.87233 13.0061C7.87967 13.2658 7.79167 13.4797 7.60833 13.6477C7.44028 13.8311 7.22639 13.9227 6.96667 13.9227C6.70694 13.9227 6.48542 13.8311 6.30208 13.6477V13.6477Z" fill="#433D3D"/>
</svg>
