<svg width="18" height="12" viewBox="0 0 18 12" fill="none" xmlns="http://www.w3.org/2000/svg">
<path fill-rule="evenodd" clip-rule="evenodd" d="M0.25 6.00006C0.25 5.8343 0.315848 5.67533 0.433058 5.55812C0.550268 5.44091 0.70924 5.37506 0.875 5.37506H15.6163L11.6825 1.44256C11.5651 1.3252 11.4992 1.16603 11.4992 1.00006C11.4992 0.834087 11.5651 0.674915 11.6825 0.557557C11.7999 0.440199 11.959 0.374268 12.125 0.374268C12.291 0.374268 12.4501 0.440199 12.5675 0.557557L17.5675 5.55756C17.6257 5.61561 17.6719 5.68458 17.7034 5.76052C17.7349 5.83645 17.7511 5.91785 17.7511 6.00006C17.7511 6.08227 17.7349 6.16367 17.7034 6.2396C17.6719 6.31553 17.6257 6.3845 17.5675 6.44256L12.5675 11.4426C12.4501 11.5599 12.291 11.6258 12.125 11.6258C11.959 11.6258 11.7999 11.5599 11.6825 11.4426C11.5651 11.3252 11.4992 11.166 11.4992 11.0001C11.4992 10.8341 11.5651 10.6749 11.6825 10.5576L15.6163 6.62506H0.875C0.70924 6.62506 0.550268 6.55921 0.433058 6.442C0.315848 6.32479 0.25 6.16582 0.25 6.00006Z" fill="white"/>
</svg>
