<svg width="15" height="14" viewBox="0 0 15 14" fill="none" xmlns="http://www.w3.org/2000/svg">
<path d="M8.03126 0.308298L14.0813 6.3583C14.1729 6.44997 14.238 6.54927 14.2765 6.65621C14.3144 6.76316 14.3333 6.87774 14.3333 6.99996C14.3333 7.12219 14.3144 7.23677 14.2765 7.34371C14.238 7.45066 14.1729 7.54996 14.0813 7.64163L8.03126 13.6916C7.8632 13.8597 7.65329 13.9477 7.40151 13.9556C7.14912 13.963 6.93126 13.875 6.74793 13.6916C6.56459 13.5236 6.46895 13.3137 6.46101 13.0619C6.45368 12.8095 6.54168 12.5916 6.72501 12.4083L11.2167 7.91663L0.972927 7.91663C0.713205 7.91663 0.495344 7.82894 0.319344 7.65355C0.143955 7.47755 0.0562601 7.25969 0.0562601 6.99996C0.0562601 6.74024 0.143955 6.52269 0.319344 6.3473C0.495344 6.1713 0.713205 6.0833 0.972927 6.0833L11.2167 6.0833L6.72501 1.59163C6.55695 1.42358 6.46895 1.20969 6.46101 0.949964C6.45368 0.690242 6.54168 0.476354 6.72501 0.308298C6.89307 0.124965 7.10695 0.0332973 7.36668 0.0332973C7.6264 0.0332973 7.84793 0.124965 8.03126 0.308298V0.308298Z" fill="#433D3D"/>
</svg>
