<svg width="30" height="30" viewBox="0 0 30 30" fill="none" xmlns="http://www.w3.org/2000/svg">
<path fill-rule="evenodd" clip-rule="evenodd" d="M28.7021 3.90233C28.8731 3.7315 29.0088 3.52867 29.1015 3.30539C29.1941 3.08212 29.2419 2.84279 29.242 2.60106C29.2422 2.35933 29.1947 2.11994 29.1023 1.89655C29.01 1.67317 28.8745 1.47016 28.7037 1.29913C28.5329 1.12809 28.33 0.992382 28.1068 0.899739C27.8835 0.807096 27.6441 0.759337 27.4024 0.759188C27.1607 0.75904 26.9213 0.806505 26.6979 0.898873C26.4745 0.991242 26.2715 1.1267 26.1005 1.29753L14.9997 12.3983L3.90208 1.29753C3.55667 0.95211 3.08818 0.758057 2.59968 0.758057C2.11119 0.758057 1.6427 0.95211 1.29728 1.29753C0.951866 1.64295 0.757813 2.11143 0.757812 2.59993C0.757812 3.08842 0.951866 3.55691 1.29728 3.90233L12.3981 14.9999L1.29728 26.0975C1.12625 26.2686 0.990579 26.4716 0.898016 26.6951C0.805454 26.9185 0.757812 27.158 0.757812 27.3999C0.757812 27.6418 0.805454 27.8813 0.898016 28.1048C0.990579 28.3282 1.12625 28.5313 1.29728 28.7023C1.6427 29.0477 2.11119 29.2418 2.59968 29.2418C2.84156 29.2418 3.08107 29.1942 3.30454 29.1016C3.528 29.009 3.73105 28.8734 3.90208 28.7023L14.9997 17.6015L26.1005 28.7023C26.4459 29.0473 26.9142 29.241 27.4024 29.2407C27.8906 29.2404 28.3587 29.0461 28.7037 28.7007C29.0487 28.3553 29.2423 27.887 29.242 27.3988C29.2417 26.9106 29.0475 26.4425 28.7021 26.0975L17.6013 14.9999L28.7021 3.90233Z" fill="white"/>
</svg>
