<svg width="33" height="40" viewBox="0 0 33 40" fill="none" xmlns="http://www.w3.org/2000/svg">
<path d="M16.0016 -0.000366191C11.7857 -0.00057699 7.74007 1.66315 4.74404 4.62922C1.74802 7.59528 0.0437153 11.624 0.0015564 15.8396C0.0015564 26.7996 14.1016 38.9996 14.7016 39.5196C15.0638 39.8295 15.5249 39.9998 16.0016 39.9998C16.4783 39.9998 16.9393 39.8295 17.3016 39.5196C18.0016 38.9996 32.0016 26.7996 32.0016 15.8396C31.9594 11.624 30.2551 7.59528 27.2591 4.62922C24.263 1.66315 20.2174 -0.00057699 16.0016 -0.000366191ZM16.0016 21.9996C14.6171 21.9996 13.2637 21.5891 12.1126 20.8199C10.9614 20.0507 10.0642 18.9575 9.5344 17.6784C9.00459 16.3993 8.86596 14.9919 9.13606 13.634C9.40616 12.2761 10.0728 11.0289 11.0518 10.0499C12.0308 9.07092 13.2781 8.40423 14.6359 8.13414C15.9938 7.86404 17.4013 8.00266 18.6803 8.53248C19.9594 9.06229 21.0527 9.9595 21.8218 11.1106C22.591 12.2618 23.0016 13.6152 23.0016 14.9996C23.0016 16.8561 22.2641 18.6366 20.9513 19.9494C19.6385 21.2621 17.8581 21.9996 16.0016 21.9996Z" fill="#FF0101"/>
</svg>
