<?xml version="1.0" encoding="utf-8"?><svg viewBox="0 0 175 48" xmlns="http://www.w3.org/2000/svg" xmlns:xlink="http://www.w3.org/1999/xlink"><style>:root>svg{display:none}:root>svg:target{display:block}</style><svg fill="none" viewBox="0 0 24 24" id="add-file" xmlns="http://www.w3.org/2000/svg"><g opacity=".6" fill="#433D3D"><path d="M4 5h13v7h2V5c0-1.103-.897-2-2-2H4c-1.103 0-2 .897-2 2v12c0 1.103.897 2 2 2h8v-2H4V5z"/><path d="M8 11l-3 4h11l-4-6-3 4-1-2z"/><path d="M19 14h-2v3h-3v2h3v3h2v-3h3v-2h-3v-3z"/></g></svg><svg fill="none" viewBox="0 0 36 24" id="arr-big" xmlns="http://www.w3.org/2000/svg"><path fill-rule="evenodd" clip-rule="evenodd" d="M.5 12a1.25 1.25 0 011.25-1.25h29.483l-7.868-7.865a1.252 1.252 0 011.77-1.77l10 10a1.25 1.25 0 010 1.77l-10 10a1.252 1.252 0 01-1.77-1.77l7.868-7.865H1.75A1.25 1.25 0 01.5 12z" fill="#433D3D"/></svg><svg fill="none" viewBox="0 0 20 38" id="arr-gal" xmlns="http://www.w3.org/2000/svg"><path d="M19.12 1.12a2.998 2.998 0 010 4.24L8.308 16.172a4 4 0 000 5.656L19.12 32.64a2.998 2.998 0 01-4.24 4.24L2.657 24.657a8 8 0 010-11.314L14.88 1.12a2.998 2.998 0 014.24 0z" fill="#fff"/></svg><svg fill="none" viewBox="0 0 15 14" id="arr-pagin" xmlns="http://www.w3.org/2000/svg"><path d="M6.302 13.648l-6.05-6.05A.81.81 0 01.057 7.3 1.022 1.022 0 010 6.956c0-.122.019-.237.057-.344a.81.81 0 01.195-.298l6.05-6.05A.897.897 0 016.932 0c.252-.007.47.081.653.264a.858.858 0 01.287.63.855.855 0 01-.264.654L3.117 6.039H13.36a.89.89 0 01.654.263.89.89 0 01.263.654c0 .26-.088.477-.263.653a.888.888 0 01-.654.264H3.117l4.491 4.491a.91.91 0 01.264.642.8.8 0 01-.264.642.832.832 0 01-.641.275.905.905 0 01-.665-.275z" fill="#433D3D"/></svg><svg fill="none" viewBox="0 0 20 20" id="arr-wh" xmlns="http://www.w3.org/2000/svg"><path fill-rule="evenodd" clip-rule="evenodd" d="M1.25 10a.625.625 0 01.625-.625h14.741l-3.934-3.932a.626.626 0 11.886-.885l5 5a.625.625 0 010 .885l-5 5a.626.626 0 01-.886-.885l3.934-3.933H1.875A.625.625 0 011.25 10z" fill="#fff"/></svg><svg fill="none" viewBox="0 0 15 14" id="arrow" xmlns="http://www.w3.org/2000/svg"><path d="M8.031.308l6.05 6.05a.81.81 0 01.196.298c.037.107.056.222.056.344 0 .122-.019.237-.056.344a.81.81 0 01-.196.298l-6.05 6.05a.896.896 0 01-.63.264.855.855 0 01-.653-.264.858.858 0 01-.287-.63.855.855 0 01.264-.654l4.492-4.491H.973a.89.89 0 01-.654-.263A.89.89 0 01.056 7c0-.26.088-.477.263-.653a.888.888 0 01.654-.264h10.244L6.725 1.592A.91.91 0 016.461.95a.8.8 0 01.264-.642.832.832 0 01.642-.275c.26 0 .48.092.664.275z" fill="#433D3D"/></svg><svg fill="none" viewBox="0 0 48 48" id="arrow-wh-pop" xmlns="http://www.w3.org/2000/svg"><g clip-path="url(#gclip0_1229_18053)"><path d="M34.12 41.88a2.998 2.998 0 000-4.24L23.31 26.828a4 4 0 010-5.656L34.12 10.36a2.998 2.998 0 10-4.24-4.24L17.657 18.343a8 8 0 000 11.314L29.88 41.88a2.998 2.998 0 004.24 0z" fill="#fff"/></g><defs><clipPath id="gclip0_1229_18053"><path fill="#fff" transform="rotate(-180 24 24)" d="M0 0h48v48H0z"/></clipPath></defs></svg><svg fill="none" viewBox="0 0 30 30" id="close" xmlns="http://www.w3.org/2000/svg"><path fill-rule="evenodd" clip-rule="evenodd" d="M28.702 3.902a1.842 1.842 0 00-1.3-3.143 1.84 1.84 0 00-1.302.539L15 12.398 3.902 1.298a1.842 1.842 0 10-2.605 2.604L12.398 15l-11.1 11.098a1.842 1.842 0 002.604 2.604L15 17.602l11.1 11.1a1.84 1.84 0 102.602-2.605L17.602 15l11.1-11.098z" fill="#fff"/></svg><svg fill="none" viewBox="0 0 175 45" id="logo-foot" xmlns="http://www.w3.org/2000/svg"><path d="M69.258 21.565V6.089h3.225c.84-.024 1.68.035 2.508.178.5.098.974.3 1.39.596a3.7 3.7 0 011.145 1.41c.276.591.415 1.236.408 1.887a3.439 3.439 0 01-.586 2.05c-.42.569-1.023.976-1.709 1.154.86.106 1.641.547 2.175 1.228.55.742.831 1.65.794 2.572a4.751 4.751 0 01-.335 1.777 4.234 4.234 0 01-.94 1.448c-.453.437-1.011.75-1.62.91a13.594 13.594 0 01-3.23.266h-3.225zm1.798-13.877v5.175h1.427c1.306 0 2.231-.189 2.764-.57a2.19 2.19 0 00.805-1.923c0-.994-.245-1.689-.742-2.091-.496-.403-1.442-.596-2.828-.596l-1.426.005zm0 6.622v5.645h1.427c.707.017 1.415-.021 2.116-.115.375-.052.733-.19 1.046-.403.33-.24.59-.565.752-.94a3.45 3.45 0 00-.036-2.791 2.4 2.4 0 00-.952-.972 2.697 2.697 0 00-.857-.314 8.15 8.15 0 00-1.51-.1h-1.965l-.021-.01zM82.496 21.565V6.089h3.633c.763-.025 1.527.035 2.278.178.463.105.898.308 1.276.595.463.386.823.882 1.045 1.443.259.635.389 1.316.381 2.002a3.763 3.763 0 01-1.045 2.89 4.422 4.422 0 01-3.136.988h-.33l5.964 7.38h-2.336l-5.644-7.38h-.267v7.38h-1.819zM84.29 7.64v5.18h1.406c1.439 0 2.4-.185 2.885-.554.486-.371.731-1.014.731-1.94 0-.924-.25-1.688-.752-2.09-.502-.402-1.453-.601-2.864-.601l-1.406.005zM145.918 13.855a7.854 7.854 0 01-2.399 5.75 8.45 8.45 0 01-5.869 2.372 8.4 8.4 0 01-5.849-2.373 8.005 8.005 0 010-11.498 8.203 8.203 0 012.687-1.74 8.455 8.455 0 016.339 0 8.23 8.23 0 012.692 1.74 7.938 7.938 0 011.787 2.613c.41.995.617 2.06.612 3.136zm-8.268 6.387a6.206 6.206 0 002.414-.48 6.5 6.5 0 002.091-1.402 6.28 6.28 0 001.86-4.505 6.506 6.506 0 00-.48-2.472 6.41 6.41 0 00-1.38-2.09 6.308 6.308 0 00-2.059-1.386 6.236 6.236 0 00-2.426-.475 6.318 6.318 0 00-2.446.475 6.054 6.054 0 00-2.038 1.385 6.453 6.453 0 00-1.866 4.552 6.335 6.335 0 00.471 2.436 6.48 6.48 0 001.395 2.09 6.355 6.355 0 002.091 1.407c.752.31 1.559.467 2.373.465zM75.316 34.52h3.852v.314a4.771 4.771 0 01-1.25 3.481 4.579 4.579 0 01-3.412 1.276 5.46 5.46 0 01-1.255-.142 4.576 4.576 0 01-1.097-.407 4.484 4.484 0 01-1.772-1.746 5.058 5.058 0 01-.627-2.53 5.64 5.64 0 01.376-2.09 4.537 4.537 0 011.124-1.652 4.18 4.18 0 011.468-.904 5.314 5.314 0 011.845-.308 5.226 5.226 0 012.337.486 4.18 4.18 0 011.635 1.468l-.93.748a3.402 3.402 0 00-1.254-1.27 3.496 3.496 0 00-1.746-.424 3.417 3.417 0 00-2.64 1.098 4.024 4.024 0 00-1.013 2.864 3.789 3.789 0 001.045 2.744 3.464 3.464 0 002.613 1.071 3.324 3.324 0 002.337-.852 3.209 3.209 0 001.045-2.215h-2.681v-1.01zM100.691 39.335V30h1.108v8.28h3.659v1.044l-4.767.011zM112.945 39.325V29.99h1.108v8.279h3.716v1.045l-4.824.01zM124.711 39.325V29.99h4.923v1.014h-3.815v2.681h3.815v1.046h-3.815v3.575h3.815v1.045l-4.923-.026zM137.703 39.323V29.99h2.195c.461-.013.922.022 1.375.104.277.069.538.192.768.361.287.23.508.531.643.873.157.383.235.793.23 1.207a2.264 2.264 0 01-.643 1.746 2.66 2.66 0 01-1.876.596h-.199l3.565 4.447h-1.412l-3.402-4.447h-.157v4.447h-1.087zm1.087-8.393v3.136h.847c.6.06 1.205-.056 1.74-.335a1.38 1.38 0 00.439-1.17 1.536 1.536 0 00-.081-.683 1.536 1.536 0 00-.373-.577 2.917 2.917 0 00-1.725-.356l-.847-.015zM153.421 39.325v-4.28l-3.366-5.055h1.285l2.671 4.108 2.655-4.108h1.228l-3.36 5.054v4.27l-1.113.01zM59.552 6.135h-.58l-7.003 15.45h1.996l2.007-4.568h6.575l2.007 4.568h1.997l-6.999-15.45zm2.242 9.35H56.5l2.739-6.224 2.733 6.224h-.178zM101.322 6.135h-.58l-7.004 15.45h1.997l2.007-4.568h6.575l2.007 4.568h1.996l-6.998-15.45zm2.242 9.35h-5.252l2.738-6.224 2.734 6.224h-.22zM89.504 30.032h-.35l-4.228 9.319h1.207l1.207-2.755h3.967l1.213 2.755h1.202l-4.218-9.32zm1.354 5.64h-3.183l1.651-3.759 1.668 3.758h-.136zM167.464 6.135h-.58l-7.009 15.45h2.002l2.007-4.568h6.554l2.012 4.568h1.996l-6.982-15.45zm2.242 9.35h-5.273l2.738-6.224 2.744 6.224h-.209zM124.196 6.125h-.564l-5.023 12.25-5.028-12.25h-.564l-2.958 15.408h1.792l1.95-10.678 4.479 10.709h.669l4.448-10.709 1.965 10.678h1.798l-2.964-15.408zM154.441 21.564l6.063-15.293h-1.986l-4.527 12.131-4.541-12.13h-1.997l6.131 15.292h.857zM22.526.732A21.769 21.769 0 11.758 22.5 21.81 21.81 0 0122.526.732zm0-.732A22.5 22.5 0 1045 22.5 22.526 22.526 0 0022.526.026V0z" fill="#433D3D"/><path d="M19.876 12.721l12.402 7.155L25.14 32.28l-12.397-7.16 7.155-12.398m-.267-.998l-7.907 13.673 13.662 7.892 7.892-13.668-13.668-7.897h.021z" fill="#433D3D"/><path d="M32.933 12.062v20.875H12.074V12.062h20.87m.731-.731H11.332v22.332h22.333V11.331h.01z" fill="#433D3D"/><path d="M16.777 43.871L1.129 16.772 28.223 1.13l15.643 27.095L16.777 43.87zM2.143 17.034l14.911 25.829 25.83-14.911L27.955 2.128 2.143 17.034z" fill="#433D3D"/><path d="M24.256 15.935l4.809 8.32-8.326 4.798-4.803-8.325 8.32-4.804m.267-.998l-9.585 5.546 5.534 9.59 9.59-5.54-5.54-9.58v-.016z" fill="#433D3D"/><path d="M25.55 19.448v6.099h-6.1v-6.1h6.1zm.732-.732h-7.563v7.563h7.563v-7.563z" fill="#433D3D"/></svg><svg fill="none" viewBox="0 0 167 44" id="logo-hd" xmlns="http://www.w3.org/2000/svg"><path d="M66.291 21.108V6.34h3.087c.804-.023 1.608.034 2.401.17.48.094.933.287 1.33.569.473.35.85.813 1.097 1.346.263.563.396 1.179.39 1.8a3.274 3.274 0 01-.56 1.955c-.403.543-.98.933-1.636 1.102.822.1 1.57.522 2.08 1.172.528.707.797 1.573.761 2.454a4.52 4.52 0 01-.32 1.695 4.04 4.04 0 01-.9 1.381 3.506 3.506 0 01-1.551.868 13.047 13.047 0 01-3.092.255H66.29zm1.721-13.24v4.936h1.366c1.25 0 2.136-.18 2.646-.543a2.09 2.09 0 00.77-1.835c0-.948-.234-1.611-.71-1.995-.475-.384-1.38-.569-2.706-.569l-1.366.005zm0 6.318v5.386h1.366c.677.016 1.355-.02 2.026-.11.359-.05.701-.181 1-.384.317-.23.566-.54.72-.898a3.283 3.283 0 00-.034-2.663 2.293 2.293 0 00-.91-.927 2.585 2.585 0 00-.821-.3 7.82 7.82 0 00-1.446-.094h-1.88l-.02-.01zM78.964 21.108V6.342h3.477a9.965 9.965 0 012.18.17c.444.1.86.294 1.221.568.444.368.788.84 1 1.376.249.606.373 1.255.366 1.91a3.58 3.58 0 01-1 2.758 4.242 4.242 0 01-3.002.942h-.315l5.708 7.042h-2.236l-5.403-7.042h-.255v7.042h-1.741zM80.68 7.823v4.942h1.345c1.378 0 2.298-.177 2.762-.529.465-.354.7-.967.7-1.85 0-.883-.24-1.61-.72-1.995-.48-.384-1.391-.573-2.742-.573l-1.346.005zM139.669 13.752a7.452 7.452 0 01-.578 2.98 7.487 7.487 0 01-1.718 2.505 8.104 8.104 0 01-5.618 2.264 8.054 8.054 0 01-5.598-2.264 7.637 7.637 0 01-2.33-5.485 7.636 7.636 0 012.33-5.485 7.852 7.852 0 012.571-1.662 8.12 8.12 0 016.069 0 7.88 7.88 0 012.576 1.661 7.59 7.59 0 011.711 2.493c.392.95.591 1.966.585 2.992zm-7.914 6.094a5.956 5.956 0 002.311-.46 6.225 6.225 0 002.001-1.336 5.98 5.98 0 001.781-4.299 6.194 6.194 0 00-.46-2.358 6.103 6.103 0 00-1.321-1.995 6.02 6.02 0 00-1.971-1.321 5.978 5.978 0 00-2.321-.454 6.057 6.057 0 00-2.341.454 5.786 5.786 0 00-1.951 1.321 6 6 0 00-1.326 1.995 6.125 6.125 0 00-.46 2.349 6.032 6.032 0 00.45 2.323 6.188 6.188 0 001.336 1.995 6.083 6.083 0 002.001 1.342c.72.295 1.492.446 2.271.444zM72.088 33.47h3.687v.299a4.54 4.54 0 01-1.195 3.32 4.384 4.384 0 01-3.267 1.218 5.244 5.244 0 01-1.2-.135 4.389 4.389 0 01-1.051-.39 4.286 4.286 0 01-1.696-1.665 4.815 4.815 0 01-.6-2.413 5.364 5.364 0 01.36-1.995 4.327 4.327 0 011.075-1.576 4.005 4.005 0 011.406-.863 5.1 5.1 0 011.766-.294c.771-.02 1.536.14 2.236.464.638.32 1.179.803 1.566 1.401l-.89.713a3.251 3.251 0 00-1.201-1.211 3.357 3.357 0 00-1.671-.404 3.282 3.282 0 00-2.526 1.047 3.832 3.832 0 00-.971 2.733 3.606 3.606 0 001 2.618 3.319 3.319 0 002.502 1.022 3.188 3.188 0 002.236-.813c.601-.545.96-1.305 1-2.114h-2.566v-.963zM96.38 38.063v-8.907h1.061v7.9h3.502v.997l-4.562.01zM108.11 38.053v-8.906h1.06v7.9h3.557v.997l-4.617.01zM119.37 38.053v-8.906h4.712v.967h-3.652v2.559h3.652v.997h-3.652v3.411h3.652v.997l-4.712-.025zM131.807 38.052v-8.906h2.101c.441-.013.882.02 1.316.1.265.065.515.181.735.343.274.22.487.507.616.833.15.366.225.757.22 1.152a2.165 2.165 0 01-.616 1.666 2.55 2.55 0 01-1.795.568h-.191l3.412 4.244h-1.35l-3.257-4.244h-.15v4.244h-1.041zm1.041-8.009v2.992h.81a2.97 2.97 0 001.666-.319 1.323 1.323 0 00.42-1.117 1.456 1.456 0 00-.435-1.202 2.799 2.799 0 00-1.651-.339l-.81-.015zM146.851 38.053V33.97l-3.221-4.822h1.23l2.557 3.92 2.541-3.92h1.176l-3.217 4.822v4.075l-1.066.01zM57.002 6.386h-.556l-6.703 14.74h1.91l1.922-4.358h6.293l1.921 4.359H63.7L57.002 6.386zm2.146 8.921H54.08l2.622-5.94 2.616 5.94h-.17zM96.983 6.386h-.556l-6.703 14.74h1.91l1.922-4.358h6.293l1.921 4.359h1.911L96.983 6.386zm2.146 8.921H94.1l2.622-5.94 2.616 5.94h-.21zM85.672 29.186h-.335l-4.048 8.892h1.156L83.6 35.45h3.797l1.16 2.628h1.15l-4.036-8.892zm1.295 5.381h-3.046l1.58-3.585 1.596 3.585h-.13zM160.293 6.386h-.555l-6.709 14.74h1.916l1.921-4.358h6.274l1.926 4.359h1.911l-6.684-14.741zm2.146 8.921h-5.047l2.621-5.94 2.627 5.94h-.201zM118.877 6.376h-.541l-4.807 11.69-4.813-11.69h-.54l-2.832 14.701h1.716l1.866-10.188 4.288 10.218h.64l4.257-10.218 1.881 10.188h1.721l-2.836-14.701zM147.828 21.107l5.804-14.592h-1.901l-4.333 11.575-4.347-11.575h-1.911l5.868 14.592h.82zM21.561 1.23c4.122 0 8.15 1.218 11.576 3.5a20.784 20.784 0 017.675 9.322 20.71 20.71 0 011.185 12 20.75 20.75 0 01-5.702 10.635 20.857 20.857 0 01-10.669 5.684c-4.041.802-8.23.39-12.038-1.182a20.823 20.823 0 01-9.351-7.65A20.723 20.723 0 01.725 22 20.777 20.777 0 016.84 7.325 20.91 20.91 0 0121.56 1.23zm0-.698A21.585 21.585 0 009.59 4.138a21.483 21.483 0 00-7.943 9.63A21.406 21.406 0 00.41 26.172a21.447 21.447 0 005.888 10.999 21.558 21.558 0 0011.027 5.882 21.6 21.6 0 0012.446-1.217 21.523 21.523 0 009.67-7.907A21.42 21.42 0 0043.073 22a21.459 21.459 0 00-6.315-15.148A21.596 21.596 0 0021.56.557V.532z" fill="#433D3D"/><path d="M19.027 12.67l11.87 6.827-6.833 11.834-11.866-6.832 6.849-11.83m-.256-.952l-7.569 13.046 13.077 7.53 7.554-13.04-13.082-7.536h.02z" fill="#433D3D"/><path d="M31.522 12.041V31.96H11.556V12.04h19.976m.7-.698H10.846v21.309h21.376V11.343h.01z" fill="#433D3D"/><path d="M16.059 42.392L1.08 16.535 27.015 1.61 41.988 27.46l-25.93 14.931zM2.05 16.785l14.273 24.644 24.723-14.227L26.76 2.562 2.05 16.785z" fill="#433D3D"/><path d="M23.217 15.736l4.603 7.94-7.97 4.577-4.597-7.944 7.964-4.583m.255-.952l-9.175 5.29 5.298 9.152 9.18-5.287-5.303-9.14v-.015z" fill="#433D3D"/><path d="M24.455 19.088v5.82h-5.838v-5.82h5.838zm.7-.699h-7.239v7.216h7.24V18.39z" fill="#433D3D"/></svg></svg>