<svg width="167" height="44" viewBox="0 0 167 44" fill="none" xmlns="http://www.w3.org/2000/svg">
<path d="M66.2913 21.1075V6.34146H69.3779C70.182 6.31831 70.9864 6.3751 71.7792 6.51101C72.2581 6.60461 72.7116 6.79837 73.1099 7.07951C73.5817 7.43058 73.9582 7.89334 74.2055 8.42595C74.469 8.98937 74.6024 9.60457 74.5957 10.2262C74.6212 10.9205 74.4251 11.605 74.0354 12.181C73.6329 12.7244 73.0554 13.1135 72.3995 13.2831C73.2215 13.3836 73.97 13.8051 74.4806 14.455C75.0083 15.162 75.2767 16.0281 75.241 16.9086C75.2442 17.489 75.1355 18.0646 74.9209 18.6041C74.7191 19.1213 74.4125 19.5916 74.0204 19.9855C73.5869 20.4029 73.0528 20.7018 72.4696 20.8532C71.4529 21.0606 70.4149 21.146 69.3779 21.1075H66.2913ZM68.0122 7.86743V12.8044H69.3779C70.6286 12.8044 71.514 12.6249 72.0243 12.2608C72.2956 12.0429 72.5082 11.7609 72.6427 11.4405C72.7772 11.1201 72.8294 10.7713 72.7947 10.4257C72.7947 9.47817 72.5596 8.81492 72.0843 8.43094C71.6091 8.04695 70.7036 7.86244 69.3779 7.86244L68.0122 7.86743ZM68.0122 14.1858V19.5715H69.3779C70.0551 19.5883 70.7326 19.5516 71.404 19.4618C71.7627 19.4122 72.105 19.2808 72.4045 19.0778C72.7214 18.8488 72.9703 18.5387 73.1249 18.1802C73.3055 17.7584 73.3957 17.3036 73.3897 16.845C73.3836 16.3865 73.2815 15.9342 73.0899 15.5172C72.8825 15.127 72.5663 14.8048 72.1794 14.5897C71.925 14.4442 71.6475 14.343 71.359 14.2905C70.881 14.2142 70.397 14.1825 69.9132 14.1957H68.0322L68.0122 14.1858Z" fill="#433D3D"/>
<path d="M78.9636 21.1077V6.34166H82.4405C83.1716 6.31796 83.9031 6.37482 84.6216 6.51121C85.0645 6.61197 85.4806 6.80578 85.8423 7.07971C86.2863 7.44758 86.6304 7.92089 86.8428 8.45607C87.0909 9.06215 87.215 9.7115 87.208 10.366C87.2453 10.87 87.1755 11.3761 87.0031 11.8514C86.8307 12.3266 86.5596 12.7602 86.2075 13.1238C85.3657 13.8108 84.2908 14.1484 83.2059 14.0663H82.8907L88.5988 21.1077H86.3626L80.9597 14.0663H80.7046V21.1077H78.9636ZM80.6795 7.82275V12.7647H82.0253C83.4027 12.7647 84.3232 12.5885 84.7867 12.2361C85.252 11.882 85.4871 11.2687 85.4871 10.386C85.4871 9.50331 85.247 8.77524 84.7667 8.39125C84.2865 8.00726 83.376 7.81776 82.0253 7.81776L80.6795 7.82275Z" fill="#433D3D"/>
<path d="M139.669 13.7515C139.683 14.7738 139.486 15.7879 139.091 16.7314C138.696 17.6749 138.111 18.5277 137.373 19.2371C135.865 20.6888 133.851 21.5005 131.755 21.5011C129.665 21.5006 127.657 20.6885 126.157 19.2371C125.42 18.5248 124.834 17.6723 124.434 16.73C124.033 15.7877 123.827 14.7748 123.827 13.7515C123.827 12.7283 124.033 11.7154 124.434 10.7731C124.834 9.83081 125.42 8.97825 126.157 8.26602C126.896 7.54958 127.77 6.98531 128.728 6.6054C130.675 5.82099 132.85 5.82099 134.797 6.6054C135.756 6.9852 136.632 7.54944 137.373 8.26602C138.105 8.97431 138.687 9.82229 139.084 10.7594C139.476 11.7084 139.675 12.7254 139.669 13.7515ZM131.755 19.8455C132.548 19.848 133.334 19.692 134.066 19.3867C134.814 19.0752 135.494 18.6212 136.067 18.0502C136.637 17.4884 137.088 16.8187 137.394 16.0804C137.7 15.3421 137.854 14.5503 137.848 13.7515C137.85 12.9429 137.694 12.1416 137.388 11.3928C137.084 10.6478 136.635 9.96994 136.067 9.39803C135.505 8.83167 134.835 8.38246 134.096 8.07652C133.361 7.77226 132.571 7.61795 131.775 7.62271C130.972 7.61744 130.176 7.77171 129.434 8.07652C128.699 8.3791 128.035 8.82891 127.483 9.39803C126.911 9.9678 126.46 10.6461 126.157 11.3928C125.851 12.1381 125.694 12.9361 125.697 13.7416C125.692 14.5382 125.845 15.3279 126.147 16.0654C126.458 16.8108 126.911 17.4884 127.483 18.0602C128.053 18.6359 128.734 19.0919 129.484 19.4016C130.204 19.697 130.976 19.8478 131.755 19.8455Z" fill="#433D3D"/>
<path d="M72.0882 33.4693H75.7752V33.7685C75.8076 34.3736 75.7186 34.979 75.5133 35.5493C75.308 36.1196 74.9905 36.6433 74.5796 37.0898C74.1476 37.5047 73.6348 37.8267 73.0728 38.036C72.5109 38.2453 71.9119 38.3374 71.3128 38.3066C70.9087 38.3081 70.5058 38.2629 70.1122 38.1719C69.7467 38.0876 69.3937 37.9569 69.0616 37.7829C68.3501 37.3983 67.7622 36.8208 67.3657 36.1173C66.9576 35.3789 66.7506 34.5467 66.7654 33.7037C66.7576 33.0221 66.8798 32.3451 67.1256 31.709C67.3622 31.1106 67.7296 30.5722 68.2012 30.1331C68.6045 29.7513 69.0833 29.4575 69.6069 29.2704C70.1735 29.069 70.7714 28.9694 71.3729 28.9762C72.1442 28.9568 72.9095 29.1155 73.609 29.44C74.247 29.7595 74.7877 30.2433 75.1749 30.8413L74.2844 31.5544C73.9995 31.0511 73.585 30.6328 73.0838 30.3426C72.5716 30.0652 71.9956 29.926 71.4129 29.9386C70.9409 29.9211 70.4707 30.0056 70.0346 30.1864C69.5985 30.3672 69.2068 30.6399 68.8865 30.9859C68.2172 31.7354 67.8689 32.7163 67.916 33.7187C67.8997 34.1995 67.9797 34.6787 68.1515 35.1283C68.3233 35.5778 68.5834 35.9887 68.9165 36.3368C69.2381 36.6727 69.627 36.9373 70.058 37.1135C70.4889 37.2896 70.9523 37.3733 71.4179 37.3591C72.2407 37.3867 73.0422 37.0954 73.6541 36.5462C74.255 36.0011 74.6148 35.2408 74.6546 34.4318H72.0882V33.4693Z" fill="#433D3D"/>
<path d="M96.3806 38.063V29.1565H97.4412V37.0556H100.943V38.053L96.3806 38.063Z" fill="#433D3D"/>
<path d="M108.11 38.0535V29.147H109.17V37.0461H112.727V38.0435L108.11 38.0535Z" fill="#433D3D"/>
<path d="M119.37 38.0535V29.147H124.082V30.1144H120.43V32.6727H124.082V33.67H120.43V37.081H124.082V38.0784L119.37 38.0535Z" fill="#433D3D"/>
<path d="M131.807 38.0521V29.1456H133.908C134.349 29.1332 134.79 29.1666 135.224 29.2453C135.489 29.3106 135.739 29.4275 135.959 29.5894C136.233 29.8091 136.446 30.0961 136.575 30.4222C136.725 30.7876 136.8 31.1794 136.795 31.5742C136.816 31.8794 136.772 32.1856 136.666 32.4727C136.56 32.7598 136.394 33.0213 136.179 33.2398C135.676 33.6512 135.033 33.8547 134.384 33.8083H134.193L137.605 38.0521H136.255L132.998 33.8083H132.848V38.0521H131.807ZM132.848 30.0432V33.0353H133.658C134.233 33.0931 134.812 32.9822 135.324 32.7162C135.477 32.5758 135.595 32.4016 135.668 32.2076C135.741 32.0135 135.767 31.8051 135.744 31.5991C135.768 31.379 135.741 31.1563 135.666 30.9481C135.59 30.7398 135.468 30.5514 135.309 30.3973C134.807 30.1174 134.23 29.9989 133.658 30.0582L132.848 30.0432Z" fill="#433D3D"/>
<path d="M146.851 38.0535V33.9692L143.63 29.147H144.86L147.417 33.0666L149.958 29.147H151.134L147.917 33.9692V38.0435L146.851 38.0535Z" fill="#433D3D"/>
<path d="M57.0017 6.38574H56.4464L49.7428 21.1268H51.6538L53.5748 16.7683H59.8682L61.7892 21.1268H63.7003L57.0017 6.38574ZM59.1478 15.3072H54.0801L56.7015 9.36787L59.3179 15.3072H59.1478Z" fill="#433D3D"/>
<path d="M96.9828 6.38574H96.4274L89.7239 21.1268H91.6349L93.5559 16.7683H99.8493L101.77 21.1268H103.681L96.9828 6.38574ZM99.1289 15.3072H94.1012L96.7226 9.36787L99.339 15.3072H99.1289Z" fill="#433D3D"/>
<path d="M85.6716 29.1865H85.3365L81.2893 38.0781H82.4449L83.6005 35.45H87.3976L88.5582 38.0781H89.7088L85.6716 29.1865ZM86.9673 34.5673H83.9207L85.5015 30.9818L87.0974 34.5673H86.9673Z" fill="#433D3D"/>
<path d="M160.293 6.38574H159.738L153.029 21.1268H154.945L156.866 16.7683H163.14L165.066 21.1268H166.977L160.293 6.38574ZM162.439 15.3072H157.392L160.013 9.36787L162.64 15.3072H162.439Z" fill="#433D3D"/>
<path d="M118.877 6.37598H118.336L113.529 18.0651L108.716 6.37598H108.176L105.344 21.0772H107.06L108.926 10.8891L113.214 21.1071H113.854L118.111 10.8891L119.992 21.0772H121.713L118.877 6.37598Z" fill="#433D3D"/>
<path d="M147.828 21.1069L153.632 6.51538H151.731L147.398 18.0898L143.051 6.51538H141.14L147.008 21.1069H147.828Z" fill="#433D3D"/>
<path d="M21.5615 1.22991C25.6825 1.22991 29.711 2.44806 33.1374 4.73032C36.5639 7.01258 39.2345 10.2564 40.8115 14.0517C42.3886 17.847 42.8012 22.0231 41.9973 26.0522C41.1933 30.0812 39.2088 33.7821 36.2949 36.6868C33.3809 39.5916 29.6682 41.5698 25.6264 42.3712C21.5846 43.1726 17.3952 42.7613 13.5879 41.1893C9.78058 39.6172 6.52642 36.955 4.23692 33.5394C1.94742 30.1238 0.725403 26.1081 0.725403 22.0001C0.735981 16.4947 2.9346 11.2179 6.83984 7.32501C10.7451 3.43212 16.0387 1.24046 21.5615 1.22991ZM21.5615 0.531753C17.3009 0.52682 13.1346 1.78172 9.58967 4.1377C6.04473 6.49367 3.28044 9.84484 1.64656 13.7672C0.0126822 17.6896 -0.417381 22.007 0.410782 26.1731C1.23895 30.3392 3.28812 34.1668 6.29905 37.1717C9.30998 40.1766 13.1474 42.2237 17.3257 43.0541C21.5041 43.8845 25.8356 43.4608 29.7724 41.8367C33.7091 40.2125 37.0741 37.4609 39.4417 33.9299C41.8092 30.3989 43.073 26.2472 43.073 22.0001C43.0598 16.317 40.7891 10.8704 36.7578 6.85187C32.7265 2.8333 27.2626 0.569857 21.5615 0.556687V0.531753Z" fill="#433D3D"/>
<path d="M19.0266 12.6698L30.8979 19.4968L24.0643 31.3305L12.1979 24.4986L19.0466 12.6698M18.7914 11.7173L11.2224 24.7629L24.2994 32.293L31.8534 19.2524L18.7714 11.7173H18.7914Z" fill="#433D3D"/>
<path d="M31.522 12.0412V31.9586H11.5563V12.0412H31.532M32.2324 11.343H10.8459V32.6518H32.2223V11.343H32.2324Z" fill="#433D3D"/>
<path d="M16.0589 42.392L1.08093 16.5352L27.0148 1.60962L41.9877 27.4614L16.0589 42.392ZM2.05145 16.7846L16.3241 41.4295L41.0472 27.2021L26.7596 2.56211L2.05145 16.7846Z" fill="#433D3D"/>
<path d="M23.2171 15.7361L27.8196 23.6752L19.8503 28.2531L15.2529 20.3091L23.2171 15.7262M23.4723 14.7737L14.2974 20.0647L19.5952 29.2156L28.7751 23.9295L23.4723 14.7886V14.7737Z" fill="#433D3D"/>
<path d="M24.4549 19.0876V24.9072H18.6168V19.0876H24.4549ZM25.1552 18.3894H17.9164V25.6054H25.1552V18.3894Z" fill="#433D3D"/>
</svg>
