<svg width="175" height="45" viewBox="0 0 175 45" fill="none" xmlns="http://www.w3.org/2000/svg">
<path d="M69.2578 21.5646V6.08901H72.4825C73.3226 6.06475 74.163 6.12428 74.9913 6.26671C75.4916 6.36481 75.9654 6.56788 76.3815 6.86253C76.8744 7.23047 77.2678 7.71548 77.5261 8.27368C77.8015 8.86417 77.9408 9.50894 77.9338 10.1604C77.9605 10.8881 77.7555 11.6055 77.3484 12.2092C76.9279 12.7787 76.3246 13.1865 75.6393 13.3643C76.4981 13.4696 77.2801 13.9113 77.8136 14.5925C78.3649 15.3335 78.6453 16.2411 78.608 17.1639C78.6113 17.7722 78.4977 18.3755 78.2735 18.9409C78.0627 19.483 77.7424 19.9758 77.3327 20.3887C76.8799 20.8262 76.3218 21.1394 75.7125 21.2981C74.6504 21.5154 73.566 21.6049 72.4825 21.5646H69.2578ZM71.0557 7.68831V12.8625H72.4825C73.7892 12.8625 74.7143 12.6744 75.2474 12.2928C75.5308 12.0644 75.7528 11.7689 75.8934 11.4331C76.0339 11.0973 76.0885 10.7317 76.0522 10.3695C76.0522 9.37646 75.8066 8.68134 75.3101 8.2789C74.8136 7.87646 73.8676 7.68308 72.4825 7.68308L71.0557 7.68831ZM71.0557 14.3103V19.9549H72.4825C73.19 19.9724 73.8978 19.934 74.5993 19.8399C74.974 19.7878 75.3317 19.6501 75.6446 19.4374C75.9757 19.1974 76.2357 18.8724 76.3972 18.4967C76.5859 18.0546 76.6801 17.578 76.6738 17.0973C76.6675 16.6167 76.5608 16.1427 76.3606 15.7057C76.1439 15.2967 75.8136 14.9591 75.4094 14.7336C75.1436 14.5811 74.8537 14.4751 74.5522 14.42C74.0529 14.3401 73.5473 14.3069 73.0418 14.3207H71.0766L71.0557 14.3103Z" fill="#433D3D"/>
<path d="M82.4961 21.5646V6.08898H86.1285C86.8923 6.06414 87.6565 6.12374 88.4072 6.26668C88.8699 6.37228 89.3047 6.57541 89.6825 6.86249C90.1464 7.24804 90.5059 7.7441 90.7278 8.305C90.987 8.9402 91.1167 9.62075 91.1093 10.3067C91.1483 10.8349 91.0753 11.3654 90.8952 11.8635C90.7151 12.3615 90.4319 12.8159 90.064 13.197C89.1846 13.9171 88.0616 14.2708 86.9282 14.1848H86.5989L92.5623 21.5646H90.2261L84.5815 14.1848H84.3149V21.5646H82.4961ZM84.2888 7.64124V12.8207H85.6947C87.1337 12.8207 88.0954 12.636 88.5797 12.2667C89.0658 11.8956 89.3114 11.2527 89.3114 10.3277C89.3114 9.40257 89.0606 8.6395 88.5588 8.23706C88.0571 7.83462 87.1058 7.63601 85.6947 7.63601L84.2888 7.64124Z" fill="#433D3D"/>
<path d="M145.918 13.8552C145.932 14.9265 145.726 15.9894 145.314 16.9782C144.901 17.967 144.29 18.8608 143.519 19.6043C141.944 21.1258 139.84 21.9765 137.65 21.9771C135.466 21.9766 133.368 21.1255 131.801 19.6043C131.031 18.8578 130.419 17.9643 130.001 16.9767C129.583 15.9891 129.367 14.9276 129.367 13.8552C129.367 12.7827 129.583 11.7212 130.001 10.7336C130.419 9.74601 131.031 8.85248 131.801 8.10602C132.574 7.35516 133.486 6.76377 134.488 6.36561C136.521 5.5435 138.794 5.5435 140.827 6.36561C141.83 6.76365 142.744 7.35501 143.519 8.10602C144.284 8.84835 144.892 9.73708 145.306 10.7193C145.716 11.7138 145.923 12.7797 145.918 13.8552ZM137.65 20.2419C138.478 20.2445 139.299 20.0811 140.064 19.7611C140.846 19.4347 141.556 18.9589 142.155 18.3604C142.75 17.7716 143.221 17.0697 143.541 16.2959C143.86 15.5222 144.022 14.6923 144.015 13.8552C144.018 13.0077 143.854 12.1679 143.535 11.383C143.217 10.6022 142.748 9.89182 142.155 9.29243C141.567 8.69886 140.867 8.22806 140.096 7.90742C139.327 7.58853 138.502 7.42681 137.67 7.4318C136.832 7.42627 136 7.58796 135.224 7.90742C134.457 8.22454 133.763 8.69597 133.186 9.29243C132.589 9.88958 132.118 10.6005 131.801 11.383C131.481 12.1641 131.318 13.0006 131.32 13.8447C131.315 14.6796 131.475 15.5073 131.791 16.2802C132.115 17.0614 132.589 17.7715 133.186 18.3708C133.782 18.9742 134.493 19.4522 135.277 19.7767C136.029 20.0863 136.836 20.2444 137.65 20.2419Z" fill="#433D3D"/>
<path d="M75.3157 34.5208H79.1676V34.8344C79.2015 35.4685 79.1084 36.103 78.8939 36.7007C78.6794 37.2984 78.3478 37.8473 77.9185 38.3152C77.4671 38.75 76.9314 39.0876 76.3443 39.3069C75.7573 39.5263 75.1314 39.6228 74.5056 39.5905C74.0834 39.5921 73.6625 39.5447 73.2512 39.4493C72.8694 39.361 72.5005 39.224 72.1536 39.0417C71.4103 38.6385 70.796 38.0333 70.3819 37.296C69.9555 36.5221 69.7392 35.6499 69.7547 34.7664C69.7466 34.052 69.8743 33.3426 70.131 32.6758C70.3782 32.0487 70.7621 31.4845 71.2547 31.0243C71.6761 30.6241 72.1763 30.3161 72.7233 30.1201C73.3153 29.909 73.9399 29.8046 74.5683 29.8117C75.3741 29.7914 76.1737 29.9578 76.9045 30.2978C77.5711 30.6326 78.1359 31.1397 78.5404 31.7664L77.6101 32.5138C77.3125 31.9864 76.8794 31.5479 76.3557 31.2438C75.8206 30.953 75.2189 30.8071 74.6101 30.8204C74.117 30.802 73.6258 30.8906 73.1702 31.0801C72.7145 31.2695 72.3054 31.5554 71.9707 31.918C71.2715 32.7035 70.9075 33.7316 70.9568 34.7821C70.9397 35.286 71.0233 35.7882 71.2028 36.2594C71.3823 36.7306 71.6541 37.1612 72.0021 37.526C72.338 37.8781 72.7443 38.1554 73.1946 38.34C73.6448 38.5246 74.1289 38.6123 74.6153 38.5974C75.475 38.6264 76.3124 38.321 76.9516 37.7455C77.5794 37.1742 77.9552 36.3773 77.9968 35.5295H75.3157V34.5208Z" fill="#433D3D"/>
<path d="M100.691 39.335V30.0005H101.799V38.2792H105.458V39.3245L100.691 39.335Z" fill="#433D3D"/>
<path d="M112.945 39.3247V29.9902H114.053V38.269H117.769V39.3143L112.945 39.3247Z" fill="#433D3D"/>
<path d="M124.711 39.3247V29.9902H129.634V31.0042H125.819V33.6854H129.634V34.7306H125.819V38.3056H129.634V39.3509L124.711 39.3247Z" fill="#433D3D"/>
<path d="M137.703 39.3234V29.989H139.898C140.359 29.976 140.82 30.011 141.273 30.0935C141.55 30.1619 141.811 30.2845 142.041 30.4541C142.328 30.6843 142.549 30.9851 142.684 31.3269C142.841 31.7099 142.919 32.1205 142.914 32.5342C142.936 32.8541 142.89 33.1751 142.78 33.476C142.669 33.7769 142.496 34.0509 142.271 34.2799C141.745 34.7111 141.073 34.9243 140.395 34.8757H140.196L143.761 39.3234H142.349L138.947 34.8757H138.79V39.3234H137.703ZM138.79 30.9297V34.0656H139.637C140.237 34.1262 140.842 34.0099 141.377 33.7311C141.537 33.5841 141.66 33.4015 141.736 33.1981C141.813 32.9947 141.84 32.7763 141.816 32.5604C141.841 32.3297 141.813 32.0963 141.735 31.8781C141.656 31.6598 141.528 31.4624 141.362 31.3008C140.837 31.0074 140.235 30.8833 139.637 30.9454L138.79 30.9297Z" fill="#433D3D"/>
<path d="M153.421 39.3247V35.0442L150.055 29.9902H151.34L154.011 34.0982L156.666 29.9902H157.894L154.534 35.0442V39.3143L153.421 39.3247Z" fill="#433D3D"/>
<path d="M59.5524 6.13525H58.9722L51.9688 21.5847H53.9653L55.9722 17.0168H62.5472L64.5541 21.5847H66.5506L59.5524 6.13525ZM61.7945 15.4854H56.5001L59.2388 9.26069L61.9722 15.4854H61.7945Z" fill="#433D3D"/>
<path d="M101.322 6.13525H100.742L93.7383 21.5847H95.7348L97.7418 17.0168H104.317L106.324 21.5847H108.32L101.322 6.13525ZM103.564 15.4854H98.3115L101.05 9.26069L103.784 15.4854H103.564Z" fill="#433D3D"/>
<path d="M89.5042 30.0317H89.154L84.9258 39.3506H86.1331L87.3404 36.5962H91.3073L92.5199 39.3506H93.7219L89.5042 30.0317ZM90.8578 35.6711H87.6749L89.3265 31.9133L90.9937 35.6711H90.8578Z" fill="#433D3D"/>
<path d="M167.464 6.13525H166.884L159.875 21.5847H161.877L163.884 17.0168H170.438L172.45 21.5847H174.446L167.464 6.13525ZM169.706 15.4854H164.433L167.171 9.26069L169.915 15.4854H169.706Z" fill="#433D3D"/>
<path d="M124.196 6.125H123.632L118.609 18.3759L113.581 6.125H113.017L110.059 21.5327H111.851L113.801 10.855L118.28 21.564H118.949L123.397 10.855L125.362 21.5327H127.16L124.196 6.125Z" fill="#433D3D"/>
<path d="M154.441 21.5642L160.504 6.27148H158.518L153.991 18.4021L149.45 6.27148H147.453L153.584 21.5642H154.441Z" fill="#433D3D"/>
<path d="M22.5261 0.731723C26.8315 0.731723 31.0402 2.00841 34.62 4.40034C38.1997 6.79227 40.9898 10.192 42.6374 14.1696C44.285 18.1473 44.7161 22.5242 43.8762 26.7468C43.0362 30.9694 40.963 34.8482 37.9186 37.8925C34.8743 40.9369 30.9955 43.0101 26.7729 43.85C22.5503 44.69 18.1734 44.2589 14.1958 42.6113C10.2182 40.9637 6.8184 38.1736 4.42647 34.5938C2.03454 31.014 0.757857 26.8054 0.757857 22.5C0.768908 16.7301 3.06589 11.1997 7.14584 7.11971C11.2258 3.03976 16.7562 0.742774 22.5261 0.731723ZM22.5261 1.51826e-05C18.075 -0.00515461 13.7222 1.31005 10.0187 3.77924C6.31516 6.24842 3.42721 9.76064 1.72023 13.8715C0.0132495 17.9824 -0.436054 22.5072 0.42916 26.8735C1.29437 31.2398 3.43523 35.2514 6.58086 38.4006C9.7265 41.5499 13.7356 43.6955 18.1009 44.5657C22.4661 45.436 26.9915 44.992 31.1043 43.2898C35.2172 41.5876 38.7328 38.7037 41.2062 35.003C43.6797 31.3024 45 26.9512 45 22.5C44.9862 16.5438 42.614 10.8355 38.4023 6.62384C34.1906 2.41216 28.4823 0.0399507 22.5261 0.0261472V1.51826e-05Z" fill="#433D3D"/>
<path d="M19.876 12.7214L32.2784 19.8765L25.139 32.2789L12.7418 25.1186L19.8969 12.7214M19.6303 11.7231L11.7227 25.3956L25.3847 33.2876L33.2767 19.6204L19.6094 11.7231H19.6303Z" fill="#433D3D"/>
<path d="M32.9331 12.0623V32.9368H12.0742V12.0623H32.9435M33.6752 11.3306H11.332V33.6633H33.6648V11.3306H33.6752Z" fill="#433D3D"/>
<path d="M16.777 43.8715L1.12891 16.7722L28.223 1.12939L43.8658 28.2235L16.777 43.8715ZM2.14284 17.0336L17.054 42.8628L42.8833 27.9517L27.9564 2.12765L2.14284 17.0336Z" fill="#433D3D"/>
<path d="M24.2563 15.935L29.0647 24.2555L20.7389 29.0534L15.9358 20.7277L24.2563 15.9245M24.5229 14.9263L14.9375 20.4716L20.4723 30.0622L30.0629 24.5221L24.5229 14.9419V14.9263Z" fill="#433D3D"/>
<path d="M25.5498 19.4475V25.5468H19.4505V19.4475H25.5498ZM26.2815 18.7158H18.7188V26.2785H26.2815V18.7158Z" fill="#433D3D"/>
</svg>
