<svg width="44" height="44" viewBox="0 0 44 44" fill="none" xmlns="http://www.w3.org/2000/svg">
<path d="M44 22C44 27.8348 41.6822 33.4305 37.5564 37.5564C33.4305 41.6822 27.8348 44 22 44C16.1652 44 10.5695 41.6822 6.44365 37.5564C2.31785 33.4305 0 27.8348 0 22C0 16.1652 2.31785 10.5695 6.44365 6.44365C10.5695 2.31785 16.1652 0 22 0C27.8348 0 33.4305 2.31785 37.5564 6.44365C41.6822 10.5695 44 16.1652 44 22ZM22.7892 16.2415C20.6497 17.1325 16.3708 18.975 9.95775 21.769C8.91825 22.1815 8.371 22.5885 8.3215 22.9845C8.239 23.6528 9.07775 23.9167 10.219 24.277L10.7002 24.4283C11.8223 24.794 13.3347 25.2202 14.1185 25.2367C14.8335 25.2533 15.6282 24.9618 16.5055 24.3568C22.4977 20.3115 25.5915 18.2682 25.784 18.2242C25.9215 18.1912 26.114 18.1528 26.2405 18.2682C26.3697 18.381 26.356 18.5982 26.3423 18.656C26.2598 19.0107 22.968 22.0688 21.2657 23.6528C20.735 24.1477 20.3582 24.497 20.2812 24.5768C20.1117 24.75 19.9393 24.9206 19.7642 25.0883C18.7192 26.0947 17.9382 26.8483 19.8055 28.0803C20.7048 28.6743 21.4253 29.161 22.143 29.6505C22.924 30.184 23.705 30.7148 24.717 31.3803C24.9727 31.5452 25.2203 31.724 25.4595 31.8945C26.3698 32.5435 27.192 33.1265 28.2013 33.033C28.7898 32.978 29.3975 32.428 29.7055 30.778C30.4342 26.8813 31.867 18.4415 32.197 14.9627C32.2171 14.6736 32.2051 14.383 32.1612 14.0965C32.1354 13.8653 32.0235 13.6523 31.8478 13.4998C31.5975 13.327 31.2992 13.2375 30.9953 13.244C30.1702 13.2577 28.897 13.7005 22.7892 16.2415Z" fill="#433D3D"/>
</svg>
