<svg width="45" height="45" viewBox="0 0 45 45" fill="none" xmlns="http://www.w3.org/2000/svg">
<path d="M29.7526 0H16.246C3.92047 0 0.998596 2.92188 0.998596 15.2474V28.754C0.998596 41.0795 3.92047 44.0014 16.246 44.0014H29.7526C42.0781 44.0014 45 41.0795 45 28.754V15.2474C45 2.92188 42.0492 0 29.7526 0ZM36.5203 31.3885H33.3262C32.1162 31.3885 31.7436 30.4287 29.567 28.2232C27.6763 26.3904 26.839 26.147 26.3728 26.147C25.7142 26.147 25.5272 26.3326 25.5272 27.236V30.1221C25.5272 30.8962 25.2838 31.361 23.2351 31.361C19.8471 31.361 16.0878 29.3123 13.452 25.4953C9.47685 19.9018 8.38922 15.7121 8.38922 14.8459C8.38922 14.3798 8.57485 13.9439 9.46997 13.9439H12.671C13.4808 13.9439 13.7888 14.3165 14.1037 15.1827C15.6863 19.7519 18.3222 23.7545 19.4098 23.7545C19.8113 23.7545 19.997 23.5689 19.997 22.5445V17.8255C19.8746 15.6489 18.7292 15.4619 18.7292 14.6891C18.7292 14.3165 19.0372 13.9439 19.5308 13.9439H24.5647C25.2453 13.9439 25.4956 14.3165 25.4956 15.1181V21.4844C25.4956 22.1719 25.8036 22.4153 25.9892 22.4153C26.3907 22.4153 26.7345 22.1719 27.4783 21.4266C29.7773 18.8485 31.4246 14.8734 31.4246 14.8734C31.6391 14.4073 32.0117 13.9714 32.8216 13.9714H36.0226C36.9823 13.9714 37.1968 14.465 36.9823 15.1525C36.5808 17.0142 32.6635 22.5431 32.6635 22.5431C32.3266 23.1014 32.1973 23.3447 32.6635 23.9676C33.0072 24.4338 34.1251 25.4004 34.869 26.2666C36.2371 27.8204 37.289 29.1239 37.5695 30.0259C37.8843 30.921 37.4196 31.3871 36.5162 31.3871L36.5203 31.3885Z" fill="#433D3D"/>
</svg>
